<?xml version="1.0" encoding="iso-8859-1"?>
<!-- Uploaded to: SVG Repo, www.svgrepo.com, Generator: SVG Repo Mixer Tools -->
<svg height="800px" width="800px" version="1.1" id="Layer_1" xmlns="http://www.w3.org/2000/svg" xmlns:xlink="http://www.w3.org/1999/xlink" 
	 viewBox="0 0 512 512" xml:space="preserve">
<path style="fill:#9ED368;" d="M0,256.006C0,397.402,114.606,512.004,255.996,512C397.394,512.004,512,397.402,512,256.006
	C512.009,114.61,397.394,0,255.996,0C114.606,0,0,114.614,0,256.006z"/>
<path style="fill:#8BC052;" d="M512,256.005c0.001-14.942-1.351-29.558-3.807-43.798c-0.264-0.268-0.495-0.569-0.803-0.803
	c-0.442-0.582-104.064-104.203-104.645-104.645c-1.467-1.929-3.677-3.258-6.286-3.258h-52.924c-0.207-0.195-0.48-0.303-0.706-0.476
	c-0.442-0.581-35.817-35.956-36.398-36.399c-1.466-1.929-3.677-3.257-6.287-3.257h-88.288c-4.433,0-8.027,3.594-8.027,8.026v24.079
	h-12.713c-5.098,0-9.371,3.394-10.807,8.026h-64.768c-4.432,0-8.026,3.594-8.026,8.026V440.6c0,2.61,1.328,4.821,3.257,6.287
	c0.442,0.581,43.399,43.538,43.981,43.981c0.158,0.207,0.368,0.353,0.541,0.541c30.911,13.239,64.944,20.592,100.703,20.591
	C397.394,512.004,512,397.401,512,256.005z"/>
<path style="fill:#F4F6F9;" d="M396.459,103.502H331.51c-1.662-4.661-6.075-8.027-11.3-8.027h-12.038V71.397
	c0-4.432-3.594-8.027-8.027-8.027h-88.288c-4.432,0-8.027,3.594-8.027,8.027v24.079h-12.714c-5.098,0-9.371,3.395-10.806,8.027
	h-64.768c-4.432,0-8.027,3.594-8.027,8.027v329.074c0,4.432,3.594,8.027,8.027,8.027h280.917c4.432,0,8.027-3.594,8.027-8.027
	V111.529C404.484,107.095,400.891,103.502,396.459,103.502z M155.673,291.428l12.545-12.545l11.946,35.84
	c1.133,3.386,4.464,5.733,7.924,5.478c3.563-0.133,6.611-2.61,7.477-6.07l15.888-63.551l15.57,69.101
	c0.819,3.633,4.033,6.227,7.756,6.262c3.974,0.231,6.988-2.5,7.87-6.117l9.418-38.442l16.213,64.852
	c0.894,3.57,4.103,6.079,7.787,6.079s6.894-2.508,7.787-6.079l18.815-75.265l14.375,28.75c2.72,5.44,11.639,5.44,14.359,0
	l9.511-19.027l15.413,25.686v94.091H155.673V291.428z M356.327,275.18l-9.17-15.284c-1.505-2.508-4.068-3.958-7.191-3.888
	c-2.928,0.11-5.557,1.81-6.87,4.429l-8.873,17.749l-16.899-33.802c-1.509-3.01-4.746-4.754-8.053-4.389
	c-3.339,0.368-6.098,2.774-6.913,6.031l-16.291,65.17l-16.291-65.17c-0.894-3.574-4.103-6.079-7.787-6.079c-0.007,0-0.012,0-0.019,0
	c-3.687,0.007-6.897,2.531-7.775,6.117l-9.013,36.788l-15.492-68.748c-0.819-3.629-4.021-6.22-7.737-6.262
	c-3.755-0.117-6.98,2.473-7.882,6.079l-17.393,69.574l-7.337-22.01c-0.882-2.638-3.065-4.633-5.769-5.271
	c-2.732-0.643-5.562,0.169-7.521,2.135l-10.378,10.378V151.66h24.079c0,4.432,3.594,8.027,8.027,8.027h136.446
	c4.432,0,8.027-3.594,8.027-8.027h24.079v123.52H356.327z M219.882,79.424h72.236v16.052h-72.236L219.882,79.424L219.882,79.424z
	 M203.829,111.529h16.052h72.236h16.052h8.027v32.105H195.804v-32.105C195.804,111.529,203.829,111.529,203.829,111.529z
	 M388.432,432.576H123.568V119.554h56.183v16.052h-32.105c-4.432,0-8.027,3.594-8.027,8.027v264.865
	c0,4.432,3.594,8.027,8.027,8.027h216.707c4.432,0,8.027-3.594,8.027-8.027V143.633c0-4.432-3.594-8.027-8.027-8.027H332.25v-16.052
	h56.183L388.432,432.576L388.432,432.576z"/>
</svg>