<?xml version="1.0" encoding="iso-8859-1"?>
<!-- Uploaded to: SVG Repo, www.svgrepo.com, Generator: SVG Repo Mixer Tools -->
<svg height="800px" width="800px" version="1.1" id="Layer_1" xmlns="http://www.w3.org/2000/svg" xmlns:xlink="http://www.w3.org/1999/xlink" 
	 viewBox="0 0 512 512" xml:space="preserve">
<path style="fill:#EC5565;" d="M0,256.006C0,397.402,114.606,512.004,255.996,512C397.394,512.004,512,397.402,512,256.006
	C512.009,114.61,397.394,0,255.996,0C114.606,0,0,114.614,0,256.006z"/>
<path style="fill:#D94453;" d="M512,256.005c0.001-24.304-3.457-47.786-9.782-70.061c-0.234-0.228-0.428-0.495-0.697-0.697
	c-0.438-0.583-61.595-61.742-62.18-62.18c-0.438-0.583-0.931-1.077-1.515-1.515c-1.394-1.862-3.511-3.146-6.016-3.146H202.489
	c-4.222,0-7.644,3.423-7.644,7.645c0,2.505,1.284,4.622,3.146,6.016c0.438,0.583,0.931,1.077,1.515,1.515
	c0.438,0.586,52.31,52.491,52.78,52.878c-11.465,12.091-19.937,27.623-25.167,46.606H205.56
	c-0.176-0.175-24.315-24.254-24.829-24.75c-2.258-2.35-4.658-4.547-7.279-6.468c-17.33-12.713-42.37-15.777-62.305-7.639
	c-15.362,6.282-27.825,18.927-34.19,34.697c-6.061,15.011-5.867,31.281,0.542,45.812c2.846,6.447,6.789,12.096,11.417,17.018
	C89.39,292.277,303.78,506.57,304.27,507.091c0.08,0.092,0.173,0.17,0.257,0.257C422.704,484.669,512,380.801,512,256.005z"/>
<g>
	<path style="fill:#F4F6F9;" d="M424.165,324.796c3.281,0,6.196-2.094,7.245-5.203c0.81-2.403,19.532-59.353-4.087-106.882
		c-12.105-24.354-33.061-41.673-62.63-51.579c-1.203-0.343-18.045-4.963-39.9-4.367v-23.069H431.81c4.222,0,7.644-3.423,7.644-7.644
		s-3.423-7.644-7.644-7.644H324.794h-15.287H202.49c-4.222,0-7.644,3.423-7.644,7.644c0,4.221,3.423,7.644,7.644,7.644h107.017
		v24.38c-12.41,1.798-25.545,5.598-37.888,12.874c-21.712,12.799-36.663,33.678-44.498,62.118H118.405
		c-2.938,0-5.617,1.683-6.89,4.334c-1.273,2.646-0.914,5.793,0.922,8.084l30.576,38.22c1.449,1.814,3.647,2.87,5.968,2.87h81.139
		c9.413,8.427,36.009,31.084,55.756,36.851l-6.097,54.877h-23.781c-4.222,0-7.644,3.423-7.644,7.644
		c0,4.222,3.423,7.644,7.644,7.644h168.169c4.222,0,7.644-3.423,7.644-7.644c0-4.222-3.423-7.644-7.644-7.644h-23.878l-5.946-53.508
		L424.165,324.796L424.165,324.796z M360.173,175.734c42.503,14.252,58.101,44.167,62.478,72.622h-62.742l-41.378-75.86
		C341.311,170.633,360.108,175.717,360.173,175.734z M233.066,271.289h-80.412l-18.345-22.932h98.756
		c3.553,0,6.64-2.448,7.446-5.908c6.334-27.202,19.382-46.809,38.784-58.278c7.495-4.431,15.443-7.296,23.322-9.165
		c0.083,0.187,0.078,0.389,0.177,0.573l45.863,84.084c1.34,2.455,3.916,3.983,6.71,3.983h68.656
		c0.582,19.926-3.277,37.427-5.563,45.863H294.217c-11.369,0-39.582-21.174-55.986-36.208
		C236.82,272.004,234.976,271.289,233.066,271.289z M384.909,378.304h-89.751l5.946-53.508h77.861L384.909,378.304z"/>
	<path style="fill:#F4F6F9;" d="M294.218,256h15.289c4.222,0,7.644-3.423,7.644-7.644s-3.423-7.644-7.644-7.644h-15.289v-15.289
		c0-4.222-3.423-7.644-7.644-7.644c-4.222,0-7.644,3.423-7.644,7.644v15.289h-15.289c-4.222,0-7.644,3.423-7.644,7.644
		S259.42,256,263.641,256h15.289v15.289c0,4.222,3.423,7.644,7.644,7.644c4.222,0,7.644-3.423,7.644-7.644V256z"/>
	<path style="fill:#F4F6F9;" d="M154.725,292.974c-24.507,9.999-52.877-0.948-63.238-24.429c-4.729-10.72-4.855-22.764-0.354-33.917
		c4.83-11.963,14.231-21.536,25.798-26.265c14.953-6.122,34.477-3.725,47.476,5.811c3.411,2.505,6.435,5.535,8.983,9.018
		c2.493,3.401,7.278,4.135,10.686,1.646c3.404-2.497,4.14-7.278,1.646-10.686c-3.471-4.736-7.599-8.876-12.272-12.302
		c-17.33-12.713-42.37-15.777-62.305-7.641c-15.362,6.282-27.825,18.927-34.189,34.697c-6.062,15.012-5.868,31.281,0.541,45.812
		c10.26,23.246,33.782,37.231,58.446,37.231c8.211,0,16.546-1.549,24.559-4.822c3.908-1.598,5.786-6.058,4.188-9.966
		C163.098,293.249,158.622,291.379,154.725,292.974z"/>
</g>
</svg>