<?xml version="1.0" encoding="iso-8859-1"?>
<!-- Uploaded to: SVG Repo, www.svgrepo.com, Generator: SVG Repo Mixer Tools -->
<svg height="800px" width="800px" version="1.1" id="Layer_1" xmlns="http://www.w3.org/2000/svg" xmlns:xlink="http://www.w3.org/1999/xlink" 
	 viewBox="0 0 512 512" xml:space="preserve">
<path style="fill:#47CEAC;" d="M512,256.006C512,397.402,397.394,512.004,256.004,512C114.606,512.004,0,397.402,0,256.006
	C-0.007,114.61,114.606,0,256.004,0C397.394,0,512,114.614,512,256.006z"/>
<path style="fill:#36BB9A;" d="M512,256.005c0-10.753-0.74-21.328-2.028-31.732c-0.281-0.293-0.532-0.615-0.865-0.865
	c-0.438-0.585-70.694-70.842-71.28-71.279c-1.394-1.861-3.511-3.146-6.016-3.146H319.573c-0.426-0.479-34.229-34.178-34.736-34.686
	c-6.129-6.988-14.842-11.179-25.015-11.179c-19.932,0-34.399,15.941-34.399,37.903v46.181h-68.669c-2.628,0-5.069,1.347-6.468,3.572
	l-37.597,59.741l-37.273,29.77c-1.818,1.449-2.874,3.647-2.874,5.972v92.046c0,2.503,1.284,4.621,3.145,6.016
	c0.438,0.585,119.226,119.373,119.81,119.81c0.231,0.308,0.532,0.537,0.8,0.8c19.164,4.579,39.138,7.071,59.706,7.07
	C397.394,512.004,512,397.401,512,256.005z"/>
<g>
	<path style="fill:#F4F6F9;" d="M431.812,148.985H294.22v-7.962c0-21.962-14.467-37.903-34.398-37.903s-34.398,15.941-34.398,37.903
		v15.605v30.576h-68.669c-2.627,0-5.069,1.347-6.468,3.572l-37.597,59.741l-37.271,29.77c-1.818,1.449-2.874,3.647-2.874,5.972
		v92.045c0,4.222,3.423,7.644,7.644,7.644h35.664c5.827,13.469,19.239,22.932,34.842,22.932c15.601,0,29.013-9.463,34.842-22.932
		h148.565c5.827,13.469,19.239,22.932,34.842,22.932c15.601,0,29.013-9.463,34.842-22.932h28.028c4.222,0,7.644-3.423,7.644-7.644
		V156.628C439.456,152.406,436.033,148.985,431.812,148.985z M424.169,332.441H240.713V194.848v-7.644v-22.932h183.456V332.441z
		 M331.021,370.66H188.617c-0.074-8.676-3.175-16.571-8.174-22.932h158.751C334.195,354.089,331.094,361.984,331.021,370.66z
		 M259.822,118.407c13.201,0,19.11,11.358,19.11,22.614v7.962h-38.22v-7.962C240.711,129.765,246.621,118.407,259.822,118.407z
		 M123.242,261.654c0.668-0.533,1.243-1.175,1.698-1.9l36.036-57.263h64.448v129.948H87.831v-42.505L123.242,261.654z
		 M87.831,347.728h33.113c-4.998,6.361-8.1,14.256-8.174,22.932H87.831V347.728z M150.693,393.591
		c-12.5,0-22.667-10.145-22.667-22.614c0-12.466,10.167-22.611,22.667-22.611s22.667,10.145,22.667,22.611
		c0,1.249-0.174,2.454-0.37,3.649c-0.623,1.106-1.074,2.318-1.074,3.678c0,0.082,0.044,0.149,0.046,0.229
		C168.829,387.28,160.524,393.591,150.693,393.591z M368.943,393.591c-9.826,0-18.127-6.305-21.265-15.044
		c0.003-0.085,0.049-0.157,0.049-0.244c0-1.366-0.455-2.581-1.084-3.691c-0.195-1.19-0.369-2.39-0.369-3.636
		c0-12.466,10.167-22.611,22.667-22.611s22.667,10.145,22.667,22.611C391.61,383.447,381.443,393.591,368.943,393.591z
		 M406.866,370.66c-0.074-8.676-3.175-16.571-8.174-22.932h25.475v22.932H406.866z"/>
	<path style="fill:#F4F6F9;" d="M271.289,233.068v38.22c0,4.222,3.423,7.644,7.644,7.644h30.576v22.932
		c0,4.222,3.423,7.644,7.644,7.644h30.576c4.222,0,7.644-3.423,7.644-7.644v-22.932h30.576c4.222,0,7.644-3.423,7.644-7.644v-38.22
		c0-4.222-3.423-7.644-7.644-7.644h-30.576v-30.576c0-4.222-3.423-7.644-7.644-7.644h-30.576c-4.222,0-7.644,3.423-7.644,7.644
		v30.576h-30.576C274.71,225.424,271.289,228.847,271.289,233.068z M286.576,240.711h30.576c4.222,0,7.644-3.423,7.644-7.644
		v-30.576h15.287v30.576c0,4.222,3.423,7.644,7.644,7.644h30.576v22.932h-30.576c-4.221,0-7.644,3.423-7.644,7.644v22.932h-15.287
		v-22.932c0-4.222-3.423-7.644-7.644-7.644h-30.576V240.711z"/>
</g>
</svg>