<?xml version="1.0" encoding="iso-8859-1"?>
<!-- Uploaded to: SVG Repo, www.svgrepo.com, Generator: SVG Repo Mixer Tools -->
<svg height="800px" width="800px" version="1.1" id="Layer_1" xmlns="http://www.w3.org/2000/svg" xmlns:xlink="http://www.w3.org/1999/xlink" 
	 viewBox="0 0 512 512" xml:space="preserve">
<path style="fill:#AB91EA;" d="M512,256.006C512,397.401,397.394,512.004,256.004,512C114.605,512.004,0,397.402,0,256.006
	C-0.008,114.61,114.605,0,256.004,0C397.394,0,512,114.614,512,256.006z"/>
<path style="fill:#947ADB;" d="M512,256.005c0-20.493-2.477-40.397-7.025-59.498c-0.482-0.506-93.461-93.488-93.983-93.983
	c-7.263-7.663-17.468-12.509-28.836-12.509H129.844c-21.964,0-39.827,17.868-39.827,39.828v252.313
	c0,11.367,4.845,21.571,12.509,28.835c0.494,0.522,0.995,1.022,1.517,1.517c0.494,0.522,90.474,90.5,90.995,90.995
	c0.481,0.508,0.97,0.995,1.476,1.476c19.099,4.545,39.001,7.022,59.491,7.021C397.394,512.004,512,397.401,512,256.005z"/>
<path style="fill:#F4F6F9;" d="M382.155,90.016H129.844c-21.964,0-39.828,17.868-39.828,39.828v252.313
	c0,21.961,17.865,39.828,39.828,39.828h252.313c21.964,0,39.828-17.868,39.828-39.828V129.844
	C421.984,107.884,404.119,90.016,382.155,90.016z M103.847,221.42h49.918c2.343,0,4.532-1.188,5.802-3.157l20.249-31.253
	l22.403,54.396c1.067,2.593,3.6,4.282,6.396,4.282c0.034,0,0.067,0,0.108,0c2.836-0.044,5.362-1.82,6.363-4.478l25.908-68.768
	l37.828,118.379c0.918,2.881,3.586,4.812,6.585,4.812c0.122,0,0.243-0.003,0.371-0.011c3.14-0.169,5.775-2.435,6.403-5.518
	l28.144-137.246l24.443,64.111c1.026,2.682,3.593,4.451,6.464,4.451h56.922v117.572h-18.526c-1.877,0-3.674,0.763-4.978,2.117
	l-15.852,16.449l-22.706-35.641c-1.101-1.726-2.917-2.877-4.95-3.14c-1.979-0.267-4.079,0.385-5.579,1.779l-19.951,18.435h-19.235
	c-1.877,0-3.674,0.763-4.985,2.117l-15.838,16.449l-22.706-35.641c-1.101-1.726-2.917-2.877-4.95-3.14
	c-1.986-0.267-4.073,0.385-5.579,1.779l-19.951,18.435h-24.719c-1.877,0-3.674,0.763-4.977,2.117l-15.852,16.449l-22.7-35.637
	c-1.101-1.729-2.911-2.881-4.944-3.143c-2.039-0.267-4.079,0.385-5.585,1.779l-19.957,18.435h-19.786L103.847,221.42L103.847,221.42
	z M129.844,103.847h252.313c14.332,0,25.996,11.661,25.996,25.996v77.744h-52.16l-31.21-81.857
	c-1.094-2.867-3.884-4.674-7.024-4.427c-3.067,0.246-5.599,2.492-6.213,5.504l-27.603,134.609l-35.829-112.125
	c-0.892-2.806-3.465-4.735-6.41-4.809c-2.938-0.165-5.613,1.718-6.645,4.475l-26.732,70.957l-20.741-50.374
	c-0.979-2.378-3.201-4.015-5.761-4.252c-2.54-0.229-5.045,0.97-6.436,3.127l-25.381,39.172h-46.159v-77.744
	C103.847,115.508,115.511,103.847,129.844,103.847z M382.155,408.151H129.844c-14.332,0-25.996-11.661-25.996-25.996v-29.332h22.491
	c1.743,0,3.418-0.655,4.694-1.837l15.865-14.656l22.97,36.066c1.141,1.79,3.039,2.955,5.147,3.168
	c0.229,0.023,0.46,0.034,0.689,0.034c1.871,0,3.667-0.756,4.978-2.117l19.904-20.657h24.49c1.743,0,3.418-0.655,4.694-1.837
	l15.858-14.653l22.977,36.066c1.141,1.787,3.039,2.951,5.147,3.164c2.087,0.212,4.201-0.557,5.674-2.083l19.89-20.657h19.006
	c1.743,0,3.418-0.655,4.694-1.837l15.858-14.653l22.977,36.066c1.141,1.787,3.039,2.951,5.147,3.164
	c2.094,0.212,4.194-0.557,5.666-2.083l19.904-20.657h15.588v29.332C408.151,396.492,396.487,408.151,382.155,408.151z"/>
</svg>